<?xml version="1.0" encoding="utf-8"?>
<!-- Generator: Adobe Illustrator 23.0.3, SVG Export Plug-In . SVG Version: 6.00 Build 0)  -->
<svg version="1.1" id="Слой_1" xmlns="http://www.w3.org/2000/svg" xmlns:xlink="http://www.w3.org/1999/xlink" x="0px" y="0px"
	 viewBox="0 0 921.2 164.6" style="enable-background:new 0 0 921.2 164.6;" xml:space="preserve">
<style type="text/css">
	.st0{fill:#750DD9;}
</style>
<g>
	<path d="M23.9,44.1c5.9-3.8,12.8-5.7,20.9-5.7c7.7,0,14.6,1.8,20.7,5.4c6.2,3.6,11,8.7,14.5,15.2c3.5,6.6,5.2,14.2,5.2,22.9
		s-1.7,16.4-5.2,23c-3.5,6.6-8.3,11.8-14.5,15.4c-6.2,3.6-13.1,5.4-20.7,5.4c-8,0-14.9-1.9-20.8-5.7c-5.9-3.8-10.2-8.5-12.9-14.2
		v58.7H0.4V39.6h10.7v18.6C13.8,52.6,18.1,47.8,23.9,44.1z M70.1,63.6c-2.7-5.1-6.5-9-11.3-11.7c-4.8-2.7-10.2-4-16.2-4
		c-5.8,0-11.1,1.4-15.9,4.2c-4.8,2.8-8.6,6.8-11.4,12c-2.8,5.2-4.2,11.2-4.2,18s1.4,12.8,4.2,18c2.8,5.2,6.6,9.2,11.4,12
		s10.1,4.2,15.9,4.2c6,0,11.4-1.4,16.2-4.1c4.8-2.7,8.5-6.7,11.3-12c2.7-5.2,4.1-11.3,4.1-18.3C74.2,74.8,72.8,68.8,70.1,63.6z"/>
	<path d="M120.9,120.3c-6.4-3.6-11.4-8.6-15.1-15.2c-3.7-6.6-5.5-14.3-5.5-23.1c0-8.8,1.9-16.5,5.6-23.1c3.7-6.6,8.8-11.7,15.2-15.2
		c6.4-3.6,13.6-5.4,21.6-5.4c8,0,15.2,1.8,21.7,5.4c6.5,3.6,11.5,8.7,15.2,15.2c3.7,6.6,5.5,14.3,5.5,23.1c0,8.7-1.9,16.4-5.6,23
		c-3.7,6.6-8.9,11.7-15.4,15.3c-6.5,3.6-13.8,5.4-21.8,5.4C134.4,125.7,127.2,123.9,120.9,120.3z M157.9,112.4
		c4.8-2.5,8.6-6.4,11.6-11.5c3-5.1,4.4-11.4,4.4-18.9c0-7.5-1.5-13.8-4.4-18.9c-2.9-5.1-6.7-9-11.5-11.5c-4.8-2.5-9.9-3.8-15.5-3.8
		c-5.6,0-10.8,1.3-15.5,3.8c-4.8,2.5-8.6,6.4-11.4,11.5c-2.9,5.1-4.3,11.4-4.3,18.9c0,7.5,1.4,13.8,4.3,18.9
		c2.8,5.1,6.6,9,11.3,11.5c4.7,2.5,9.9,3.8,15.5,3.8S153.2,115,157.9,112.4z"/>
	<path d="M204.9,21.3c-1.6-1.6-2.3-3.5-2.3-5.7c0-2.3,0.8-4.2,2.3-5.7c1.6-1.5,3.4-2.3,5.6-2.3s4,0.8,5.6,2.3
		c1.6,1.5,2.3,3.4,2.3,5.7c0,2.3-0.8,4.2-2.3,5.7c-1.6,1.6-3.4,2.3-5.6,2.3S206.4,22.8,204.9,21.3z M215.9,39.6v84.8H205V39.6H215.9
		z"/>
	<path d="M305.2,47.5c6.4,6.3,9.6,15.4,9.6,27.3v49.7h-10.7V76c0-9.2-2.3-16.3-6.9-21.1c-4.6-4.9-10.9-7.3-18.9-7.3
		c-8.2,0-14.7,2.6-19.6,7.8c-4.9,5.2-7.3,12.8-7.3,22.8v46.3h-10.9V39.6h10.9v14.5c2.7-5.2,6.6-9.1,11.7-11.9
		c5.1-2.7,10.8-4.1,17.2-4.1C290.5,38.1,298.8,41.2,305.2,47.5z"/>
	<path d="M353.1,48.8v52.7c0,5.2,1,8.8,3,10.7c2,2,5.4,3,10.4,3h9.9v9.3h-11.7c-7.7,0-13.4-1.8-17.1-5.4c-3.7-3.6-5.6-9.5-5.6-17.6
		V48.8h-11.8v-9.2h11.8V18.3h11v21.3h23.3v9.2H353.1z"/>
	<path d="M409.9,120.3c-6.4-3.6-11.4-8.6-15.1-15.2c-3.7-6.6-5.5-14.3-5.5-23.1c0-8.8,1.9-16.5,5.6-23.1c3.7-6.6,8.8-11.7,15.2-15.2
		c6.4-3.6,13.6-5.4,21.6-5.4c8,0,15.2,1.8,21.7,5.4c6.5,3.6,11.5,8.7,15.2,15.2c3.7,6.6,5.5,14.3,5.5,23.1c0,8.7-1.9,16.4-5.6,23
		c-3.7,6.6-8.9,11.7-15.4,15.3c-6.5,3.6-13.8,5.4-21.8,5.4C423.4,125.7,416.2,123.9,409.9,120.3z M446.9,112.4
		c4.8-2.5,8.6-6.4,11.6-11.5c3-5.1,4.4-11.4,4.4-18.9c0-7.5-1.5-13.8-4.4-18.9c-2.9-5.1-6.7-9-11.5-11.5c-4.8-2.5-9.9-3.8-15.5-3.8
		s-10.8,1.3-15.5,3.8c-4.8,2.5-8.6,6.4-11.4,11.5c-2.8,5.1-4.3,11.4-4.3,18.9c0,7.5,1.4,13.8,4.3,18.9c2.8,5.1,6.6,9,11.3,11.5
		c4.7,2.5,9.9,3.8,15.5,3.8S442.2,115,446.9,112.4z"/>
	<path d="M527.4,48.8h-19.7v75.7h-10.9V48.8H485v-9.2h11.8v-5.9c0-9.2,2.4-16,7.1-20.4c4.7-4.4,12.4-6.5,22.9-6.5v9.3
		c-7,0-12,1.3-14.8,4c-2.9,2.7-4.3,7.2-4.3,13.5v5.9h19.7V48.8z"/>
	<path class="st0" d="M644.1,15.4l-38.7,109.1h-33.3L533.5,15.4h28.3l27,82.4L616,15.4H644.1z"/>
	<path class="st0" d="M657.1,24.6c-3-2.7-4.4-6.1-4.4-10.2c0-4.1,1.5-7.6,4.4-10.3c3-2.7,6.8-4.1,11.4-4.1c4.6,0,8.3,1.4,11.3,4.1
		c3,2.7,4.4,6.2,4.4,10.3c0,4-1.5,7.4-4.4,10.2c-3,2.7-6.7,4.1-11.3,4.1C663.8,28.7,660,27.4,657.1,24.6z M681.7,37.8v86.7h-26.6
		V37.8H681.7z"/>
	<path class="st0" d="M782.3,87.5h-60.1c0.4,5.4,2.1,9.5,5.2,12.4c3.1,2.8,6.8,4.3,11.3,4.3c6.6,0,11.2-2.8,13.8-8.4h28.3
		c-1.5,5.7-4.1,10.8-7.8,15.4c-3.8,4.6-8.5,8.1-14.2,10.7c-5.7,2.6-12.1,3.9-19.1,3.9c-8.5,0-16.1-1.8-22.7-5.4
		c-6.6-3.6-11.8-8.8-15.5-15.5c-3.7-6.7-5.6-14.6-5.6-23.6c0-9,1.8-16.9,5.5-23.6c3.7-6.7,8.8-11.9,15.5-15.5
		c6.6-3.6,14.2-5.4,22.8-5.4c8.4,0,15.8,1.8,22.4,5.3c6.5,3.5,11.6,8.5,15.3,15.1c3.7,6.5,5.5,14.1,5.5,22.8
		C782.7,82.2,782.6,84.8,782.3,87.5z M755.5,72.7c0-4.6-1.6-8.2-4.7-10.9c-3.1-2.7-7-4-11.7-4c-4.5,0-8.2,1.3-11.3,3.9
		c-3.1,2.6-4.9,6.3-5.7,11H755.5z"/>
	<path class="st0" d="M921.2,37.8l-23.5,86.7h-29.4l-13.7-56.2l-14.1,56.2h-29.2l-23.6-86.7h26.6l12.3,62l14.6-62h28.1L884,99.4
		l12.1-61.7H921.2z"/>
</g>
</svg>
