<?xml version="1.0" encoding="utf-8"?>
<!-- Generator: Adobe Illustrator 23.0.3, SVG Export Plug-In . SVG Version: 6.00 Build 0)  -->
<svg version="1.1" id="Слой_1" xmlns="http://www.w3.org/2000/svg" xmlns:xlink="http://www.w3.org/1999/xlink" x="0px" y="0px"
	 viewBox="0 0 997 127" style="enable-background:new 0 0 997 127;" xml:space="preserve">
<g>
	<path d="M60.4,70.3c-6.2,5.8-15.4,8.6-27.8,8.6H10.5v46.7h-11V16h33.1c12.2,0,21.5,2.9,27.7,8.6c6.2,5.8,9.3,13.4,9.3,22.9
		C69.6,57,66.5,64.6,60.4,70.3z M58.3,47.6c0-7.3-2-12.9-6.1-16.6c-4.1-3.8-10.6-5.6-19.6-5.6H10.5v44.2h22.1
		C49.7,69.5,58.3,62.2,58.3,47.6z"/>
	<path d="M103.7,121.5c-6.4-3.6-11.5-8.7-15.2-15.4c-3.7-6.6-5.6-14.4-5.6-23.3c0-8.9,1.9-16.6,5.6-23.3c3.8-6.6,8.9-11.8,15.4-15.4
		c6.5-3.6,13.7-5.4,21.8-5.4c8,0,15.3,1.8,21.9,5.4c6.5,3.6,11.7,8.7,15.4,15.4c3.7,6.6,5.6,14.4,5.6,23.3c0,8.8-1.9,16.5-5.6,23.2
		c-3.8,6.7-8.9,11.8-15.5,15.4c-6.6,3.6-13.9,5.4-22,5.4C117.4,126.9,110.2,125.1,103.7,121.5z M141.1,113.5
		c4.8-2.6,8.7-6.4,11.7-11.6c3-5.2,4.5-11.5,4.5-19.1s-1.5-13.9-4.4-19.1c-2.9-5.2-6.8-9-11.6-11.6c-4.8-2.6-10-3.8-15.7-3.8
		s-10.9,1.3-15.7,3.8c-4.8,2.6-8.7,6.4-11.5,11.6c-2.9,5.2-4.3,11.5-4.3,19.1s1.4,13.9,4.3,19.1c2.9,5.2,6.7,9,11.4,11.6
		c4.8,2.6,10,3.8,15.6,3.8C131.1,117.4,136.3,116.1,141.1,113.5z"/>
	<path d="M188.5,21.5c-1.6-1.6-2.4-3.5-2.4-5.8c0-2.3,0.8-4.2,2.4-5.7c1.6-1.5,3.5-2.3,5.6-2.3c2.2,0,4.1,0.8,5.6,2.3
		c1.6,1.5,2.4,3.4,2.4,5.7c0,2.3-0.8,4.2-2.4,5.8c-1.6,1.6-3.4,2.4-5.6,2.4C191.9,23.9,190.1,23.1,188.5,21.5z M199.6,40v85.6h-11
		V40H199.6z"/>
	<path d="M289.8,48c6.5,6.3,9.7,15.5,9.7,27.5v50.2h-10.8V76.7c0-9.3-2.3-16.4-7-21.3c-4.7-4.9-11-7.4-19.1-7.4
		c-8.3,0-14.8,2.6-19.8,7.8c-4.9,5.2-7.4,12.9-7.4,23.1v46.7h-11V40h11v14.6c2.7-5.2,6.6-9.2,11.8-12c5.1-2.8,10.9-4.2,17.4-4.2
		C274.9,38.5,283.3,41.6,289.8,48z"/>
	<path d="M338.1,49.3v53.2c0,5.2,1,8.8,3,10.8c2,2,5.5,3,10.5,3h10v9.4h-11.8c-7.7,0-13.5-1.8-17.3-5.4c-3.8-3.6-5.6-9.5-5.6-17.8
		V49.3H315V40H327V18.6h11.1V40h23.5v9.3H338.1z"/>
	<path d="M438.4,121.5c-6.4-3.6-11.5-8.7-15.2-15.4c-3.7-6.6-5.6-14.4-5.6-23.3c0-8.9,1.9-16.6,5.6-23.3c3.8-6.6,8.9-11.8,15.4-15.4
		c6.5-3.6,13.7-5.4,21.8-5.4c8,0,15.3,1.8,21.9,5.4c6.5,3.6,11.7,8.7,15.4,15.4c3.7,6.6,5.6,14.4,5.6,23.3c0,8.8-1.9,16.5-5.6,23.2
		c-3.8,6.7-8.9,11.8-15.5,15.4c-6.6,3.6-13.9,5.4-22,5.4C452,126.9,444.8,125.1,438.4,121.5z M475.8,113.5
		c4.8-2.6,8.7-6.4,11.7-11.6c3-5.2,4.5-11.5,4.5-19.1s-1.5-13.9-4.4-19.1c-2.9-5.2-6.8-9-11.6-11.6c-4.8-2.6-10-3.8-15.7-3.8
		s-10.9,1.3-15.7,3.8c-4.8,2.6-8.7,6.4-11.5,11.6c-2.9,5.2-4.3,11.5-4.3,19.1s1.4,13.9,4.3,19.1c2.9,5.2,6.7,9,11.4,11.6
		c4.8,2.6,10,3.8,15.6,3.8C465.7,117.4,471,116.1,475.8,113.5z"/>
	<path d="M557,49.3h-19.9v76.4h-11V49.3h-11.9V40h11.9v-6c0-9.3,2.4-16.2,7.1-20.5c4.8-4.4,12.5-6.6,23.1-6.6v9.4
		c-7.1,0-12.1,1.4-15,4.1c-2.9,2.7-4.3,7.3-4.3,13.6v6H557V49.3z"/>
	<path d="M717.8,15.6l-39,110.1h-33.6l-39-110.1h28.5l27.3,83.1l27.4-83.1H717.8z"/>
	<path d="M730.8,24.9c-3-2.8-4.5-6.2-4.5-10.3c0-4.2,1.5-7.7,4.5-10.4c3-2.8,6.8-4.2,11.5-4.2c4.6,0,8.4,1.4,11.4,4.2
		c3,2.8,4.5,6.2,4.5,10.4c0,4.1-1.5,7.5-4.5,10.3c-3,2.8-6.8,4.2-11.4,4.2C737.7,29.1,733.8,27.7,730.8,24.9z M755.7,38.2v87.5
		h-26.8V38.2H755.7z"/>
	<path d="M857.2,88.3h-60.7c0.4,5.4,2.2,9.6,5.3,12.5c3.1,2.9,6.9,4.3,11.4,4.3c6.7,0,11.3-2.8,14-8.5h28.5
		c-1.5,5.8-4.1,10.9-7.9,15.5c-3.8,4.6-8.6,8.2-14.3,10.8c-5.8,2.6-12.2,3.9-19.3,3.9c-8.6,0-16.2-1.8-22.9-5.5
		c-6.7-3.7-11.9-8.9-15.7-15.7c-3.8-6.8-5.6-14.7-5.6-23.8s1.9-17,5.6-23.8c3.7-6.8,8.9-12,15.6-15.7c6.7-3.7,14.4-5.5,23.1-5.5
		c8.5,0,16,1.8,22.6,5.3c6.6,3.6,11.7,8.6,15.4,15.2c3.7,6.6,5.6,14.3,5.6,23.1C857.6,83,857.5,85.6,857.2,88.3z M830.2,73.4
		c0-4.6-1.6-8.3-4.7-11c-3.1-2.7-7.1-4.1-11.8-4.1c-4.5,0-8.3,1.3-11.4,3.9c-3.1,2.6-5,6.3-5.7,11.1H830.2z"/>
	<path d="M997.4,38.2l-23.7,87.5h-29.6l-13.8-56.8L916,125.7h-29.5l-23.8-87.5h26.8l12.4,62.6l14.7-62.6H945l14.9,62.3l12.2-62.3
		H997.4z"/>
</g>
</svg>
